<svg width="71" height="55" viewBox="0 0 71 55" fill="none" xmlns="http://www.w3.org/2000/svg">
<rect width="71" height="55" fill="#E5E5E5"/>
<rect width="71" height="55" rx="10" fill="#E21D48"/>
<path d="M24.043 34.2695V14.5625H29.8828V34.2695C29.8828 36.1706 29.4661 37.8047 28.6328 39.1719C27.7995 40.526 26.6602 41.5677 25.2148 42.2969C23.7826 43.026 22.168 43.3906 20.3711 43.3906C18.5091 43.3906 16.862 43.0781 15.4297 42.4531C13.9974 41.8281 12.8711 40.8711 12.0508 39.582C11.2305 38.2799 10.8203 36.6328 10.8203 34.6406H16.6992C16.6992 35.6823 16.8424 36.5091 17.1289 37.1211C17.4284 37.7331 17.8516 38.1693 18.3984 38.4297C18.9453 38.6901 19.6029 38.8203 20.3711 38.8203C21.1133 38.8203 21.7578 38.6445 22.3047 38.293C22.8516 37.9414 23.2747 37.4271 23.5742 36.75C23.8867 36.0729 24.043 35.2461 24.043 34.2695ZM47.5977 14.5625V43H41.7578V14.5625H47.5977ZM56.3477 14.5625V19.1523H33.1445V14.5625H56.3477Z" fill="white"/>
</svg>